<mxfile host="app.diagrams.net" modified="2024-02-06T03:47:36.960Z" agent="Mozilla/5.0 (Windows NT 10.0; Win64; x64) AppleWebKit/537.36 (KHTML, like Gecko) Chrome/121.0.0.0 Safari/537.36" etag="yO6JR9AD5lesLkMAh4JV" version="23.1.1" type="github">
  <diagram name="Page-1" id="T3wrFXK3MikF3SH9-EXU">
    <mxGraphModel dx="1434" dy="780" grid="1" gridSize="10" guides="1" tooltips="1" connect="1" arrows="1" fold="1" page="1" pageScale="1" pageWidth="850" pageHeight="1100" math="0" shadow="0">
      <root>
        <mxCell id="0" />
        <mxCell id="1" parent="0" />
        <mxCell id="5YMaatPl8z0rgt4AD0pO-2" value="" style="rounded=0;whiteSpace=wrap;html=1;" vertex="1" parent="1">
          <mxGeometry x="280" y="100" width="240" height="390" as="geometry" />
        </mxCell>
        <mxCell id="5YMaatPl8z0rgt4AD0pO-4" value="Actor" style="shape=umlActor;verticalLabelPosition=bottom;verticalAlign=top;html=1;outlineConnect=0;" vertex="1" parent="1">
          <mxGeometry x="60" y="200" width="50" height="120" as="geometry" />
        </mxCell>
        <mxCell id="5YMaatPl8z0rgt4AD0pO-6" value="Perpus Digital" style="text;html=1;strokeColor=none;fillColor=none;align=center;verticalAlign=middle;whiteSpace=wrap;rounded=0;" vertex="1" parent="1">
          <mxGeometry x="345" y="110" width="110" height="30" as="geometry" />
        </mxCell>
        <mxCell id="5YMaatPl8z0rgt4AD0pO-19" value="" style="ellipse;whiteSpace=wrap;html=1;" vertex="1" parent="1">
          <mxGeometry x="340" y="150" width="120" height="70" as="geometry" />
        </mxCell>
        <mxCell id="5YMaatPl8z0rgt4AD0pO-20" value="Form Pengunjung" style="text;html=1;strokeColor=none;fillColor=none;align=center;verticalAlign=middle;whiteSpace=wrap;rounded=0;" vertex="1" parent="1">
          <mxGeometry x="350" y="170" width="100" height="30" as="geometry" />
        </mxCell>
        <mxCell id="5YMaatPl8z0rgt4AD0pO-21" value="" style="ellipse;whiteSpace=wrap;html=1;" vertex="1" parent="1">
          <mxGeometry x="340" y="230" width="120" height="70" as="geometry" />
        </mxCell>
        <mxCell id="5YMaatPl8z0rgt4AD0pO-22" value="Pencarian Buku" style="text;html=1;strokeColor=none;fillColor=none;align=center;verticalAlign=middle;whiteSpace=wrap;rounded=0;" vertex="1" parent="1">
          <mxGeometry x="355" y="250" width="90" height="30" as="geometry" />
        </mxCell>
        <mxCell id="5YMaatPl8z0rgt4AD0pO-23" value="" style="ellipse;whiteSpace=wrap;html=1;" vertex="1" parent="1">
          <mxGeometry x="340" y="310" width="120" height="70" as="geometry" />
        </mxCell>
        <mxCell id="5YMaatPl8z0rgt4AD0pO-24" value="Detel Buku" style="text;html=1;strokeColor=none;fillColor=none;align=center;verticalAlign=middle;whiteSpace=wrap;rounded=0;" vertex="1" parent="1">
          <mxGeometry x="365" y="330" width="70" height="30" as="geometry" />
        </mxCell>
        <mxCell id="5YMaatPl8z0rgt4AD0pO-25" value="" style="ellipse;whiteSpace=wrap;html=1;" vertex="1" parent="1">
          <mxGeometry x="340" y="390" width="130" height="70" as="geometry" />
        </mxCell>
        <mxCell id="5YMaatPl8z0rgt4AD0pO-26" value="Laporan Statistik" style="text;html=1;strokeColor=none;fillColor=none;align=center;verticalAlign=middle;whiteSpace=wrap;rounded=0;" vertex="1" parent="1">
          <mxGeometry x="355" y="410" width="100" height="30" as="geometry" />
        </mxCell>
        <mxCell id="5YMaatPl8z0rgt4AD0pO-27" value="Actor" style="shape=umlActor;verticalLabelPosition=bottom;verticalAlign=top;html=1;outlineConnect=0;" vertex="1" parent="1">
          <mxGeometry x="680" y="200" width="50" height="120" as="geometry" />
        </mxCell>
        <mxCell id="5YMaatPl8z0rgt4AD0pO-34" value="" style="endArrow=none;html=1;rounded=0;entryX=0;entryY=0.5;entryDx=0;entryDy=0;" edge="1" parent="1" target="5YMaatPl8z0rgt4AD0pO-19">
          <mxGeometry width="50" height="50" relative="1" as="geometry">
            <mxPoint x="120" y="240" as="sourcePoint" />
            <mxPoint x="240" y="170" as="targetPoint" />
          </mxGeometry>
        </mxCell>
        <mxCell id="5YMaatPl8z0rgt4AD0pO-35" value="" style="endArrow=none;html=1;rounded=0;exitX=1;exitY=0.5;exitDx=0;exitDy=0;" edge="1" parent="1" source="5YMaatPl8z0rgt4AD0pO-19">
          <mxGeometry width="50" height="50" relative="1" as="geometry">
            <mxPoint x="470" y="190" as="sourcePoint" />
            <mxPoint x="660" y="242.5" as="targetPoint" />
          </mxGeometry>
        </mxCell>
        <mxCell id="5YMaatPl8z0rgt4AD0pO-36" value="" style="endArrow=none;html=1;rounded=0;entryX=0.25;entryY=0.436;entryDx=0;entryDy=0;entryPerimeter=0;" edge="1" parent="1" target="5YMaatPl8z0rgt4AD0pO-2">
          <mxGeometry width="50" height="50" relative="1" as="geometry">
            <mxPoint x="120" y="280" as="sourcePoint" />
            <mxPoint x="170" y="230" as="targetPoint" />
          </mxGeometry>
        </mxCell>
        <mxCell id="5YMaatPl8z0rgt4AD0pO-37" value="" style="endArrow=none;html=1;rounded=0;exitX=1;exitY=0.5;exitDx=0;exitDy=0;" edge="1" parent="1" source="5YMaatPl8z0rgt4AD0pO-21">
          <mxGeometry width="50" height="50" relative="1" as="geometry">
            <mxPoint x="610" y="310" as="sourcePoint" />
            <mxPoint x="660" y="260" as="targetPoint" />
          </mxGeometry>
        </mxCell>
        <mxCell id="5YMaatPl8z0rgt4AD0pO-38" value="" style="endArrow=none;html=1;rounded=0;exitX=0.75;exitY=0.615;exitDx=0;exitDy=0;exitPerimeter=0;" edge="1" parent="1" source="5YMaatPl8z0rgt4AD0pO-2">
          <mxGeometry width="50" height="50" relative="1" as="geometry">
            <mxPoint x="590" y="340" as="sourcePoint" />
            <mxPoint x="640" y="290" as="targetPoint" />
          </mxGeometry>
        </mxCell>
        <mxCell id="5YMaatPl8z0rgt4AD0pO-39" value="" style="endArrow=none;html=1;rounded=0;entryX=0;entryY=0.5;entryDx=0;entryDy=0;" edge="1" parent="1" target="5YMaatPl8z0rgt4AD0pO-23">
          <mxGeometry width="50" height="50" relative="1" as="geometry">
            <mxPoint x="120" y="310" as="sourcePoint" />
            <mxPoint x="210" y="320" as="targetPoint" />
          </mxGeometry>
        </mxCell>
        <mxCell id="5YMaatPl8z0rgt4AD0pO-41" value="" style="endArrow=none;html=1;rounded=0;exitX=0.977;exitY=0.386;exitDx=0;exitDy=0;exitPerimeter=0;" edge="1" parent="1" source="5YMaatPl8z0rgt4AD0pO-25">
          <mxGeometry width="50" height="50" relative="1" as="geometry">
            <mxPoint x="590" y="390" as="sourcePoint" />
            <mxPoint x="640" y="310" as="targetPoint" />
          </mxGeometry>
        </mxCell>
      </root>
    </mxGraphModel>
  </diagram>
</mxfile>
